<?xml version="1.0" encoding="utf-8"?>
<!-- Generator: Adobe Illustrator 18.1.1, SVG Export Plug-In . SVG Version: 6.00 Build 0)  -->
<svg version="1.1"
	 id="Layer_1" xmlns:cc="http://creativecommons.org/ns#" xmlns:rdf="http://www.w3.org/1999/02/22-rdf-syntax-ns#" xmlns:dc="http://purl.org/dc/elements/1.1/"
	 xmlns="http://www.w3.org/2000/svg" xmlns:xlink="http://www.w3.org/1999/xlink" x="0px" y="0px" viewBox="481.3 476.5 162.7 71"
	 enable-background="new 481.3 476.5 162.7 71" xml:space="preserve">
<g transform="scale(1.6666667,1.6666667)">
	<rect x="331.8" y="291.4" fill="#007AC2" width="47.3" height="19"/>
	<polyline fill="#FFFFFF" points="336.4,293.1 341.5,293.1 344.6,303.7 344.8,303.7 346.9,293.1 350.8,293.1 347.5,308.4 
		342.4,308.4 339.1,297.8 339.1,297.8 337.1,308.4 333.1,308.4 	"/>
	<polyline fill="#FFFFFF" points="352.4,293.1 356.5,293.1 355.2,299 360.1,299 361.4,293.1 365.5,293.1 362.2,308.4 358.1,308.4 
		359.5,301.9 354.6,301.9 353.2,308.4 349.1,308.4 	"/>
	<path fill="#FFFFFF" d="M376.4,296.6c-0.8-0.3-1.9-0.6-3.5-0.6c-1.6,0-3,0.3-3,1.4c0,2.2,6,1.4,6,6c0,4.3-3.9,5.4-7.6,5.4
		c-1.6,0-3.5-0.3-4.7-0.8l1-3.2c0.8,0.5,2.5,1,3.8,1c1.2,0,3.3-0.3,3.3-1.9c0-2.5-6-1.6-6-5.9c0-3.9,3.5-5.2,6.8-5.2
		c1.9,0,3.7,0.2,4.7,0.6"/>
</g>
<text transform="matrix(1 0 0 1 490.6705 538.3636)" font-family="'HelveticaNeue-MediumItalic'" font-size="19.9777">Your town CCG</text>
</svg>
